<?xml version="1.0" encoding="UTF-8"?>
<svg id="Calque_2" data-name="Calque 2" xmlns="http://www.w3.org/2000/svg" viewBox="0 0 645.99 399.81">
  <defs>
    <style>
      .cls-1 {
        opacity: .4;
      }

      .cls-2, .cls-3 {
        fill: #d4a93c;
      }

      .cls-3 {
        stroke: #d4a93c;
        stroke-miterlimit: 10;
        stroke-width: 2px;
      }
    </style>
  </defs>
  <g id="Calque_1-2" data-name="Calque 1">
    <g class="cls-1">
      <path class="cls-3" d="M168.23,184.5c-.21-.5-.17-1.03-.15-1.54.13-3.85.27-7.7.51-11.54.3-4.99.13-10.02.88-14.97.54-3.59.39-7.2.65-10.79.16-2.2-.34-4.5.48-6.58.54-1.37.28-2.26-.76-3-4.69-3.33-9.05-7.35-15.31-7.55-.45-.01-1.03-.28-1.54-.55-2.61-1.43-5.33-2.6-8.11-3.67-4.94-1.9-9.87-3.87-15-5.15-5.65-1.41-11.5-1.6-17.26-2.36l-.32-.52c.2.44.05.72-.39.88-2.79,1.02-5.56,2.14-8.6,1.97-3.94-.22-7.97.29-11.69-1.76-.84-.46-1.96-1.06-3.07-.71-2.35.74-4.82.69-7.2,1.25-4.57,1.08-9.25,1.02-13.89,1.24-3.84.18-7.44-1.13-11.08-2.01-11.65-2.83-23.43-5.13-34.9-8.65-3.75-1.15-7.58-2.07-11.25-3.49-3.15-1.22-5.13-3.47-5.87-6.73-1.42-6.24-1.43-12.66-2.21-18.99-.41-3.33-.49-6.7-.99-10.02-.65-4.29.7-6.05,4.25-7.41,5.5-2.12,11.3-3.35,16.94-5.1,3.73-1.16,7.47-2.34,11.23-3.38,5.19-1.43,10.3-3.15,15.53-4.37,5.37-1.25,10.59-3,15.97-4.21,2.24-.5,4.5-1.02,6.7-1.7,6.28-1.96,12.73-2.94,19.25-3.65,8.45-.92,16.94-1.06,25.41-1.64,7.07-.49,13.9-1.6,20.51-4.2,5.43-2.13,10.86-4.24,16.19-6.58,4.76-2.1,8.57-5.76,12.72-8.83,2.74-2.03,5.25-4.5,8.32-5.93,7.24-3.38,14.35-7.05,21.61-10.38,2.56-1.18,2.88-1.54,4.68,1.48,6.59,11.08,13.09,22.21,19.66,33.29,2.53,4.27,5.06,8.55,7.01,13.14,2.32,5.47,4.24,11.09,6.17,16.7,1.69,4.92,3.29,9.88,5,14.8,1.26,3.64,2.47,7.31,3.71,10.96,1.24,3.65,2.48,7.3,3.71,10.96,1.43,4.27,2.86,8.53,4.35,12.78.47,1.34.83,2.67-.37,4.08-1.16,1.38-.53,2.84,1.38,3.53,1.12.4,1.93,1.03,2.19,2.09.29,1.14.8,2.18,1.17,3.28,1.43,4.2,2.84,8.41,4.27,12.61,1.59,4.68,3.22,9.35,4.7,14.08.82,2.64,1.7,5.27,2.66,7.85,1.08,2.9,2.05,5.84,3.06,8.77,1.05,3.03,2.05,6.08,3.04,9.13,1.13,3.48,2.24,6.99,3.55,10.41.88,2.29,1.13,4.79,2.2,6.97,1.47,2.99,2.32,6.17,3.43,9.27,1.12,3.14,2.21,6.31,3.19,9.5,1.59,5.21,3.7,10.27,4.82,15.63l-4.42,2.2c-4.17,1.58-4.02,1.53-2.63,5.93.95,3,2.12,5.92,2.96,8.96.32,1.16.82,2.29,1.18,3.47.42,1.36,1.54,1.67,2.78,1.12,1.54-.69,3.15-1.12,4.78-1.48,1.91-.42,2.43-.23,3.11,1.65,1,2.78,2.04,5.55,2.75,8.42.19.77.41,1.52.9,2.15l.56-.13c-1.06.22-.55.94-.43,1.48.3,1.36.57,2.7.18,4.11-.12.44-.16.99.47,1.48,3.04,2.38,3.93,6,5.17,9.41,1.25,3.44,1.93,7.07,3.38,10.45.58,1.35-.68,1.92-1.45,2.24-2.19.91-4.47,1.65-6.73,2.39-4.28,1.4-8.51,2.92-12.78,4.34-5.31,1.77-10.58,3.64-15.88,5.44-4.14,1.41-8.28,2.83-12.4,4.27-1.7.59-2.12,1.9-1.33,3.64,1.4,3.06,2.21,6.32,3.36,9.47,1.04,2.84,2,5.71,2.95,8.58,1.11,3.35,2.19,6.72,3.36,10.05,1.11,3.16,2.17,6.34,3.26,9.5,1,2.91,1.96,5.84,2.92,8.77,1.08,3.3,2.25,6.58,3.37,9.87.99,2.91,1.92,5.86,2.9,8.78,1.09,3.23,1.99,6.53,3.38,9.66.23.52.27,1.12.4,1.68.45,1.88,1.2,2.29,3.13,1.63,7.35-2.52,14.78-4.8,22.15-7.28,6.76-2.28,13.54-4.49,20.3-6.78,2.22-.75,4.4-1.87,6.86-1.84l-.22-.93c1.37,2.31,2.29,4.85,3.01,7.38,1.31,4.59,3.2,8.96,4.59,13.51.61,1.99,1.15,2.44,3.16,1.83,4.61-1.39,9.2-2.83,13.78-4.31,4.4-1.42,8.8-2.82,13.2-4.24,4.7-1.52,9.4-3.09,14.15-4.42,5.75-1.61,11.35-3.65,17.09-5.27,1.72-.49,3.5-.9,5.15-1.56,3.71-1.48,7.61-2.38,11.36-3.73,2.66-.96,5.36-1.86,8.07-2.56,2.12-.55,3.78-2.07,5.97-2.28l-2.24.52c.17-.47-.02-.91-.12-1.35-.58-2.72-1.74-5.24-2.58-7.88-1.03-3.25-2.19-6.45-3.27-9.68-1.33-3.96-2.79-7.88-4.1-11.86-.85-2.56-1.71-5.13-2.63-7.66-1.04-2.85-2.01-5.72-3.02-8.58-1.03-2.91-2.07-5.82-3.06-8.74-1.34-3.96-2.76-7.9-4.07-11.87-1.31-3.96-2.65-7.93-4.05-11.86-1.79-5.04-3.48-10.11-5.33-15.13-1.29-3.5-2.36-7.08-3.68-10.57-.7-1.84-1.2-2.08-3.09-1.45-6.16,2.08-12.26,4.33-18.39,6.47-6.26,2.19-12.52,4.39-18.77,6.61-7.82,2.78-15.66,5.5-23.51,8.22-3.28,1.14-6.59,2.22-9.85,3.42-3.02,1.11-6.07,2.17-9.11,3.21-1.83.63-3.73,1.72-5.85,1.05l-9.35-20.89c-.79.42-1.39,1.16-2.22,1.48-5.76,2.25-11.62,4.23-17.48,6.19-7.92,2.65-15.86,5.23-23.78,7.89-1.27.43-2.22.03-2.61-1.18-.86-2.63-1.81-5.22-2.6-7.87-.95-3.2-1.99-6.38-3.1-9.51-1.55-4.37-2.88-8.81-4.48-13.16-1.37-3.74-2.6-7.54-3.79-11.34-1.41-4.54-3.07-8.99-4.42-13.55-.47-1.6-.9-3.24-1.51-4.76-1.27-3.18-2.27-6.44-3.31-9.69-1.02-3.18-2.09-6.34-3.11-9.51-1.59-4.89-3.3-9.74-4.93-14.62-.51-1.53-.82-3.13-1.44-4.59-1.34-3.15-2.23-6.46-3.32-9.69-1.11-3.28-2.1-6.61-3.21-9.88-1.49-4.39-2.96-8.78-4.46-13.17-1.4-4.07-2.85-8.12-4.09-12.25-.29-.99-3.81-3.14-4.77-2.8-2.48.89-5.13,1.14-7.6,2.1-6.27,2.44-12.23,1.7-17.94-1.76-1.83-1.11-3.39-2.8-5.76-2.81l-2.99,46.78Z"/>
    </g>
    <g>
      <path class="cls-2" d="M201.86,51.86c0-1.32.32-2.21.95-2.65.63-.45,1.84-.68,3.64-.68,4.32,0,6.51,1.08,6.57,3.24l1.35,27,.09,27.99h17.46c2.94,0,4.41,1.08,4.41,3.24,0,3.9-.57,6.24-1.71,7.02-.6.42-1.38.63-2.34.63h-28.98l-1.44-1.44V51.86Z"/>
      <path class="cls-2" d="M261.62,114.86c-3.12,2.82-5.9,4.23-8.33,4.23s-4.4-.17-5.89-.5c-1.5-.33-2.85-1.05-4.05-2.16-1.2-1.11-2.04-2.71-2.52-4.81-.48-2.1-.72-4.89-.72-8.37,0-4.86,2.37-8.19,7.11-9.99l12.87-3.33c-.06-3.9-.45-6.42-1.17-7.56-.72-1.14-2.28-1.71-4.68-1.71s-4.47.39-6.21,1.17l-3.15,1.26h-.09c-.54.3-1.02.06-1.44-.72-1.08-2.28-1.62-4.06-1.62-5.35s.1-2.01.32-2.16c.21-.15.32-.25.32-.31,3-1.98,6.88-2.97,11.65-2.97s8.45.63,11.03,1.89c2.58,1.26,4.46,3.56,5.62,6.88,1.17,3.33,1.75,8.27,1.75,14.81l-.18,22.5c0,.36-.06.6-.18.72-.24.48-1.38.72-3.42.72-3.72,0-5.58-.48-5.58-1.44l-1.44-2.79ZM250.1,103.43c0,4.32,1.26,6.6,3.78,6.84,1.74,0,3-.3,3.78-.9,1.68-1.14,2.52-5.4,2.52-12.78-3.12.42-5.58,1.28-7.38,2.56-1.8,1.29-2.7,2.72-2.7,4.27Z"/>
    </g>
    <g>
      <path d="M427.75,335.21v-57.66l-8.25,15.37h-12.83l-7.75-15.11v57.28c0,1.52-.04,2.54-.13,3.05-.34,1.18-1.99,1.78-4.95,1.78-8.47,0-12.7-1.57-12.7-4.7v-90.04c0-3.22,2.92-4.83,8.76-4.83s9.35,1.57,10.54,4.7l12.83,32.77,13.46-32.89c.68-1.86,1.5-3.09,2.48-3.68.97-.59,2.69-.89,5.14-.89,6.1,0,9.19,1.65,9.27,4.95l2.03,37.85v51.18c0,2.54-.23,4.11-.7,4.7-.47.59-1.99.89-4.57.89s-4.68-.08-6.29-.25c-1.61-.17-3.07-.62-4.38-1.33-1.31-.72-1.97-1.76-1.97-3.11Z"/>
      <path d="M571.5,337.88c0,.51-.09.85-.25,1.02-.34.68-1.91,1.02-4.7,1.02s-5.52-.21-8.19-.63c-2.67-.42-4-.89-4-1.4v-95.5c0-1.35,1.48-2.03,4.45-2.03s5.42.19,7.37.57c1.95.38,2.96.87,3.05,1.46l2.29,40.77v54.74Z"/>
      <path d="M617.85,289.87l-.76-.25-4.83-2.41c-3.64-1.44-6.77-2.16-9.4-2.16-3.81.17-5.71,1.99-5.71,5.46,0,1.36.74,2.46,2.22,3.3,1.48.85,2.69,1.5,3.62,1.97.93.47,2.29,1.12,4.06,1.97,6.35,2.71,11.07,5.71,14.16,9.02,3.09,3.3,4.64,6.56,4.64,9.78,0,7.03-1.86,12.68-5.59,16.96-3.73,4.28-8.78,6.41-15.18,6.41s-11.41-.85-15.05-2.54c-3.64-1.69-6.69-4.11-9.14-7.24-.34-.17-.51-.42-.51-.76s.06-.76.19-1.27c.13-.51,1.12-1.88,2.99-4.13,1.86-2.24,3.34-3.37,4.44-3.37.34,0,.68.17,1.02.51,4.49,3.56,8.85,5.33,13.08,5.33,2.37,0,4.15-.68,5.33-2.03,1.18-1.35,1.78-2.84,1.78-4.45s-.68-2.92-2.03-3.94c-1.35-1.02-3.03-2.01-5.02-2.98-1.99-.97-3.07-1.5-3.24-1.59-.17-.08-.4-.21-.7-.38-.3-.17-.57-.3-.83-.38-4.32-2.12-7.98-4.76-10.99-7.94-3.01-3.17-4.51-6.71-4.51-10.6,0-6.77,1.76-11.68,5.27-14.73,3.51-3.05,9.08-4.57,16.7-4.57,2.88,0,5.63.34,8.25,1.02,3.56.93,6.1,2.03,7.62,3.3h.13c.68.42,1.08.93,1.21,1.52.13.59.06,1.86-.19,3.81-.85,4.91-1.86,7.37-3.05,7.37Z"/>
      <path d="M505.33,285.17c-1.61-4.74-4.15-7.98-7.62-9.71-3.47-1.73-8.59-2.6-15.37-2.6s-11.9.87-15.37,2.6c-3.47,1.74-6.01,4.97-7.62,9.71-1.19,3.51-1.94,8.27-2.25,14.25l7.37-5.75c.82-.64,1.96-.64,2.78,0l7.09,5.53c.24-5.41.78-8.97,1.64-10.66,1.18-2.33,4.32-3.49,9.4-3.49,2.71,0,4.06,7.03,4.06,21.08,0,7.03-.34,12.32-1.02,15.88-.34,1.78-.97,3.01-1.91,3.68-1.78,1.19-4.53,1.78-8.25,1.78-2.71,0-4.06-5.11-4.06-19.34,0-.59,0-1.16,0-1.73l-6.98-5.28c-.81-.61-1.93-.61-2.74,0l-7.54,5.71c0,.44-.01.85-.01,1.3,0,12.7,1.82,19.51,5.46,24.42,3.64,4.91,10.29,7.37,19.94,7.37s16.3-2.46,19.94-7.37c3.64-4.91,5.46-13.72,5.46-26.42,0-9.23-.81-16.21-2.41-20.96Z"/>
      <path d="M533.08,320.93c-.82.64-1.97.64-2.79,0l-7.86-6.13c-.17,2.89-.43,5.3-.79,7.2-.34,1.78-.97,3.01-1.91,3.68-1.78,1.19-4.53,1.78-8.25,1.78-2.71,0-4.06-7.11-4.06-21.34,0-9.4.59-15.26,1.78-17.59,1.18-2.33,4.32-3.49,9.4-3.49,2.71,0,4.06,6.03,4.06,20.08,0,1.24-.01,2.4-.04,3.53l7.68,5.81c.82.62,1.96.62,2.78,0l7.82-5.91c.03-1.11.05-2.25.05-3.43,0-9.23-.81-15.21-2.41-19.96-1.61-4.74-4.15-7.98-7.62-9.71-3.47-1.73-8.59-2.6-15.37-2.6s-11.9.87-15.37,2.6c-3.47,1.74-6.01,4.97-7.62,9.71-1.61,4.74-2.41,11.73-2.41,20.96,0,12.7,1.82,21.51,5.46,26.42,3.64,4.91,10.29,7.37,19.94,7.37s16.3-2.46,19.94-7.37c2.71-3.66,4.41-9.48,5.1-17.47l-7.51,5.86Z"/>
    </g>
    <g>
      <path d="M227.9,132.09c12.95,0,21.93,2.14,26.92,6.41,4.99,4.28,7.49,11.01,7.49,20.19s-1.82,16.11-5.46,20.76c5.33,4.4,8,11.81,8,22.23,0,19.98-11.47,29.97-34.42,29.97-2.71,0-11.56-.68-26.54-2.03v-95.5c8.8-1.35,16.81-2.03,24-2.03ZM224.09,173.62c7.37,0,12.38-.89,15.05-2.67,2.67-1.78,4-5.72,4-11.81,0-3.47-.74-6.33-2.22-8.57-1.48-2.24-3.07-3.37-4.76-3.37-7.2,0-11.56.47-13.08,1.4-.51.34-.93.85-1.27,1.52v21.46c0,1.02.17,1.61.51,1.78.59.17,1.18.25,1.78.25ZM243.21,212.98c1.65-1.86,2.48-5.67,2.48-11.43s-.64-9.23-1.91-10.41c-1.27-1.18-4.55-1.78-9.84-1.78s-8.64.08-10.03.25c-1.4.17-2.1.68-2.1,1.52v22.73c0,.93.57,1.48,1.71,1.65,1.14.17,4.3.25,9.46.25s8.57-.93,10.22-2.79Z"/>
      <path d="M304.1,225.69c-4.4,3.98-8.32,5.97-11.75,5.97s-6.2-.23-8.32-.7c-2.12-.47-4.02-1.48-5.71-3.05-1.69-1.57-2.88-3.83-3.56-6.79-.68-2.96-1.02-6.9-1.02-11.81,0-6.86,3.34-11.56,10.03-14.1l18.16-4.7c-.09-5.5-.64-9.06-1.65-10.67-1.02-1.61-3.22-2.41-6.6-2.41s-6.31.55-8.76,1.65l-4.45,1.78h-.13c-.76.42-1.44.09-2.03-1.02-1.52-3.22-2.29-5.73-2.29-7.56s.15-2.84.44-3.05c.3-.21.44-.36.44-.44,4.23-2.79,9.72-4.19,16.45-4.19s11.92.89,15.56,2.67c3.64,1.78,6.29,5.02,7.94,9.72,1.65,4.7,2.48,11.66,2.48,20.89l-.25,31.75c0,.51-.09.85-.25,1.02-.34.68-1.95,1.02-4.83,1.02-5.25,0-7.87-.68-7.87-2.03l-2.03-3.94ZM287.85,209.56c0,6.1,1.78,9.31,5.33,9.65,2.45,0,4.23-.42,5.33-1.27,2.37-1.61,3.56-7.62,3.56-18.03-4.4.59-7.87,1.8-10.41,3.62-2.54,1.82-3.81,3.83-3.81,6.03Z"/>
      <path d="M371.67,168.92c.59.34.89,1.12.89,2.35s-.3,2.86-.89,4.89c-1.1,3.73-2.29,5.29-3.56,4.7h-.13l-4.45-1.78c-2.46-1.1-5.44-1.65-8.95-1.65s-5.76,1.44-6.73,4.32c-.97,2.88-1.46,8.43-1.46,16.64s.61,13.74,1.84,16.57c1.23,2.84,3.58,4.25,7.05,4.25,4.99,0,8.89-.3,11.68-.89,2.79-.59,4.23-.89,4.32-.89.59-.17,1.08.17,1.46,1.02.38.85.57,2.84.57,5.97s-.68,4.87-2.03,5.21c-5.25,1.35-10.41,2.03-15.49,2.03-10.25,0-17.25-2.43-21.02-7.3-3.77-4.87-5.65-13.69-5.65-26.48,0-9.23.83-16.19,2.48-20.89,1.65-4.7,4.3-7.94,7.94-9.72,3.64-1.78,8.93-2.67,15.87-2.67s12.32,1.44,16.13,4.32h.13Z"/>
      <path d="M399.73,229.62c0,.51-.04.85-.13,1.02-.42.68-2.03,1.02-4.83,1.02s-5.55-.21-8.26-.63c-2.71-.42-4.06-.89-4.06-1.4v-95.5c0-1.35,1.48-2.03,4.45-2.03s5.42.19,7.37.57c1.95.38,2.96.87,3.05,1.46l2.41,40.77v54.74ZM437.71,230.26c0,.93-1.57,1.4-4.7,1.4s-6.18-.21-9.14-.63c-2.96-.42-4.57-.89-4.83-1.4l-.13-.13-16.51-34.42v-4.06l13.46-24.26c.08,0,.13-.04.13-.13.76-1.35,2.45-2.03,5.08-2.03,6.01,0,9.86.51,11.56,1.52.34.17.46.34.38.51l-14.35,24.38,18.92,38.61c.08.25.13.46.13.63Z"/>
      <path d="M439.61,166.25c0-1.1,1.54-1.65,4.64-1.65s5.97.21,8.64.63c2.67.42,4.04.89,4.13,1.4l11.3,43.43,9.91-43.43c.34-1.35,1.69-2.03,4.06-2.03,4.66,0,7.75.25,9.27.76,1.52.51,2.29.89,2.29,1.14l-25.4,91.57c-.34,1.35-1.69,2.03-4.06,2.03s-4.32-.09-5.84-.25c-3.3-.42-4.87-1.02-4.7-1.78,0-.25.04-.47.13-.63l6.48-27.81-20.7-62.74v-.25c-.09-.17-.13-.3-.13-.38Z"/>
      <path d="M527.11,225.69c-4.4,3.98-8.32,5.97-11.75,5.97s-6.2-.23-8.32-.7c-2.12-.47-4.02-1.48-5.71-3.05-1.69-1.57-2.88-3.83-3.56-6.79-.68-2.96-1.02-6.9-1.02-11.81,0-6.86,3.34-11.56,10.03-14.1l18.16-4.7c-.08-5.5-.63-9.06-1.65-10.67-1.02-1.61-3.22-2.41-6.6-2.41s-6.31.55-8.76,1.65l-4.45,1.78h-.13c-.76.42-1.44.09-2.03-1.02-1.52-3.22-2.29-5.73-2.29-7.56s.15-2.84.44-3.05c.3-.21.44-.36.44-.44,4.23-2.79,9.71-4.19,16.45-4.19s11.92.89,15.56,2.67c3.64,1.78,6.29,5.02,7.94,9.72,1.65,4.7,2.48,11.66,2.48,20.89l-.25,31.75c0,.51-.09.85-.25,1.02-.34.68-1.95,1.02-4.83,1.02-5.25,0-7.87-.68-7.87-2.03l-2.03-3.94ZM510.86,209.56c0,6.1,1.78,9.31,5.33,9.65,2.45,0,4.23-.42,5.33-1.27,2.37-1.61,3.56-7.62,3.56-18.03-4.4.59-7.87,1.8-10.41,3.62-2.54,1.82-3.81,3.83-3.81,6.03Z"/>
      <path d="M568.13,171.71c6.94-4.74,11.54-7.11,13.78-7.11s4.27.42,6.1,1.27c1.82.85,3.15,1.69,4,2.54l1.14,1.14c-1.27,5.42-2.24,8.81-2.92,10.16-.68,1.36-1.59,2.03-2.73,2.03s-2.6-.46-4.38-1.4c-1.78-.93-3.39-1.4-4.82-1.4s-4.32,1.31-8.64,3.94v46.74c0,.51-.09.85-.25,1.02-.34.68-1.9,1.02-4.7,1.02s-5.4-.21-7.81-.63c-2.41-.42-3.62-.89-3.62-1.4v-62.99c0-1.35,1.91-2.03,5.72-2.03s6.01.68,6.6,2.03v.25l2.54,4.83Z"/>
      <path d="M614.62,231.65c-6.27,0-10.86-2.56-13.78-7.68-2.92-5.12-4.38-14.03-4.38-26.73s1.84-21.31,5.52-25.84c3.68-4.53,10.65-6.79,20.89-6.79h6.1v-30.48c0-1.35,1.48-2.03,4.45-2.03s5.42.19,7.37.57c1.95.38,2.96.87,3.05,1.46l2.16,40.51v54.99c0,.51-.04.85-.13,1.02-.42.68-1.99,1.02-4.7,1.02s-5.02-.19-6.92-.57-2.86-.87-2.86-1.46l-2.41-3.94c-2.46,1.61-4.19,2.75-5.21,3.43-2.79,1.69-5.84,2.54-9.14,2.54ZM616.46,180.66c-1.14,2.58-1.71,6.94-1.71,13.08s.02,10.18.06,12.13c.04,1.95.1,4.19.19,6.73.17,4.57.76,6.86,1.78,6.86,3.05,0,7.11-1.52,12.19-4.57v-38.1h-6.1c-3.13,0-5.27,1.29-6.41,3.87Z"/>
    </g>
    <g>
      <path class="cls-2" d="M261.31,339.88c-4.44,0-7.69-1.81-9.77-5.45-2.07-3.63-3.1-9.95-3.1-18.95s1.31-15.1,3.92-18.31c2.61-3.21,7.54-4.82,14.81-4.82h4.32v-21.6c0-.96,1.05-1.44,3.15-1.44s3.84.13,5.22.41c1.38.27,2.1.62,2.16,1.03l1.53,28.71v38.97c0,.36-.03.6-.09.72-.3.48-1.41.72-3.33.72s-3.56-.14-4.9-.41c-1.35-.27-2.03-.62-2.03-1.04l-1.71-2.79c-1.74,1.14-2.97,1.95-3.69,2.43-1.98,1.2-4.14,1.8-6.48,1.8ZM262.62,303.75c-.81,1.83-1.21,4.92-1.21,9.27s.01,7.21.04,8.59c.03,1.38.07,2.97.13,4.77.12,3.24.54,4.86,1.26,4.86,2.16,0,5.04-1.08,8.64-3.24v-27h-4.32c-2.22,0-3.73.92-4.54,2.75Z"/>
      <path class="cls-2" d="M307.93,339.88c-6.42,0-10.88-1.74-13.37-5.22-2.49-3.48-3.73-9.72-3.73-18.72,0-6.48.57-11.41,1.71-14.8,1.14-3.39,2.86-5.7,5.17-6.93,2.31-1.23,5.72-1.84,10.22-1.84s7.9.63,10.21,1.89c2.31,1.26,4,3.6,5.08,7.02s1.62,8.28,1.62,14.58v1.08c0,.36-.71.69-2.12.99-1.41.3-3.1.45-5.08.45h-13.86c.12,7.02.63,11.01,1.53,11.97.54.48,1.41.72,2.61.72,7.86,0,13.23-.39,16.11-1.17.12-.06.21-.09.27-.09.42-.12.77.12,1.04.72.27.6.4,2.01.4,4.23s-.48,3.45-1.44,3.69c-2.46.96-7.92,1.44-16.38,1.44ZM303.79,304.15v7.02h9.09c-.24-6.96-.93-10.44-2.07-10.44-2.04,0-3.72.3-5.04.9-1.32.6-1.98,1.44-1.98,2.52Z"/>
      <path class="cls-2" d="M357.43,304.42l-.54-.18-3.42-1.71c-2.58-1.02-4.8-1.53-6.66-1.53-2.7.12-4.05,1.41-4.05,3.87,0,.96.52,1.74,1.58,2.34,1.05.6,1.9,1.07,2.56,1.4.66.33,1.62.8,2.88,1.39,4.5,1.92,7.84,4.05,10.04,6.39,2.19,2.34,3.29,4.65,3.29,6.93,0,4.98-1.32,8.99-3.96,12.01-2.64,3.03-6.23,4.55-10.75,4.55s-8.09-.6-10.67-1.8c-2.58-1.2-4.74-2.91-6.48-5.13-.24-.12-.36-.3-.36-.54s.04-.54.13-.9c.09-.36.79-1.33,2.12-2.93,1.32-1.59,2.37-2.38,3.15-2.38.24,0,.48.12.72.36,3.18,2.52,6.27,3.78,9.27,3.78,1.68,0,2.94-.48,3.78-1.44.84-.96,1.26-2.01,1.26-3.15s-.48-2.07-1.44-2.79c-.96-.72-2.15-1.42-3.55-2.11-1.41-.69-2.18-1.06-2.29-1.12-.12-.06-.29-.15-.5-.27-.21-.12-.41-.21-.58-.27-3.06-1.5-5.66-3.38-7.79-5.62-2.13-2.25-3.19-4.75-3.19-7.52,0-4.8,1.24-8.28,3.73-10.44,2.49-2.16,6.44-3.24,11.83-3.24,2.04,0,3.99.24,5.85.72,2.52.66,4.32,1.44,5.4,2.34h.09c.48.3.77.66.86,1.08.09.42.04,1.32-.14,2.7-.6,3.48-1.32,5.22-2.16,5.22Z"/>
    </g>
  </g>
</svg>