<svg xmlns="http://www.w3.org/2000/svg" xmlns:xlink="http://www.w3.org/1999/xlink" width="1366" zoomAndPan="magnify" viewBox="0 0 1024.5 576" height="768" preserveAspectRatio="xMidYMid meet" version="1.0"><defs><g/><clipPath id="1c5b83a9f2"><path d="M 28 79 L 536 79 L 536 526 L 28 526 Z M 28 79 " clip-rule="nonzero"/></clipPath><clipPath id="37860019e9"><path d="M 17.816406 143.027344 L 411.894531 35.257812 L 538.253906 497.308594 L 144.171875 605.078125 Z M 17.816406 143.027344 " clip-rule="nonzero"/></clipPath><clipPath id="bdb90cf717"><path d="M 17.816406 143.027344 L 411.894531 35.257812 L 538.253906 497.308594 L 144.171875 605.078125 Z M 17.816406 143.027344 " clip-rule="nonzero"/></clipPath><clipPath id="e80ae7c7bd"><path d="M 17.816406 143.027344 L 411.894531 35.257812 L 538.253906 497.308594 L 144.171875 605.078125 Z M 17.816406 143.027344 " clip-rule="nonzero"/></clipPath><clipPath id="158629c1ee"><rect x="0" width="72" y="0" height="98"/></clipPath><clipPath id="1dde088111"><rect x="0" width="648" y="0" height="210"/></clipPath><clipPath id="279deb3ff1"><rect x="0" width="114" y="0" height="99"/></clipPath><clipPath id="de669dbb94"><rect x="0" width="455" y="0" height="234"/></clipPath></defs><g clip-path="url(#1c5b83a9f2)"><g clip-path="url(#37860019e9)"><g clip-path="url(#bdb90cf717)"><g clip-path="url(#e80ae7c7bd)"><path fill="#000000" d="M 238.804688 85.449219 C 233.558594 88.273438 227.582031 91.472656 225.539062 92.523438 C 223.503906 93.597656 220.984375 95.023438 219.925781 95.738281 C 218.863281 96.433594 214.734375 99.753906 210.734375 103.128906 C 206.726562 106.488281 203.058594 109.527344 202.582031 109.835938 C 201.011719 110.890625 198.707031 112.125 195.960938 113.367188 C 194.488281 114.039062 190.050781 116.082031 186.117188 117.894531 C 179.203125 121.105469 178.820312 121.257812 174.28125 122.585938 C 167.59375 124.574219 165.9375 124.824219 142.984375 127.09375 C 134.570312 127.917969 128.945312 128.628906 123.386719 129.589844 C 118.683594 130.40625 105.949219 134.023438 91.292969 138.703125 C 73.382812 144.429688 70.628906 145.339844 59.652344 149.078125 C 54.351562 150.886719 47.035156 153.359375 43.351562 154.542969 C 39.675781 155.75 36.089844 156.976562 35.375 157.304688 C 31.378906 159.070312 28.996094 161.558594 28.746094 164.175781 C 28.597656 165.761719 33.117188 198.15625 33.859375 200.882812 C 34.839844 204.464844 36.855469 207.003906 40.171875 208.894531 C 42.179688 210.019531 42.867188 210.238281 50.613281 212.210938 C 60.769531 214.804688 62.355469 215.199219 68.820312 216.566406 C 78.371094 218.585938 103.765625 223.363281 105.273438 223.398438 C 106.09375 223.445312 107.964844 223.335938 109.425781 223.183594 C 110.886719 223.050781 113 222.921875 114.097656 222.910156 C 116.957031 222.890625 118.523438 222.640625 125.796875 221.078125 C 133 219.511719 133.109375 219.503906 135.507812 220.570312 C 137.289062 221.359375 137.789062 221.46875 141.09375 221.683594 C 145.992188 222 151.457031 221.757812 153.894531 221.089844 C 154.476562 220.929688 155.550781 220.4375 156.28125 219.992188 C 157.007812 219.546875 157.9375 219.089844 158.332031 218.980469 C 158.707031 218.878906 162.695312 219.0625 167.171875 219.382812 C 177.839844 220.160156 177.519531 220.132812 178.878906 220.613281 C 179.546875 220.832031 181.761719 221.480469 183.828125 222.078125 C 191.027344 224.09375 197.546875 226.40625 203.164062 228.941406 C 205.59375 230.046875 205.929688 230.132812 206.722656 229.914062 C 208.054688 229.550781 210.074219 230.140625 213.863281 231.96875 C 217.347656 233.65625 221.078125 235.835938 221.800781 236.597656 C 222.152344 236.972656 222.226562 237.984375 222.320312 245.363281 C 222.386719 249.953125 222.316406 255.097656 222.175781 256.792969 C 222.035156 258.488281 221.871094 264.929688 221.832031 271.09375 C 221.742188 284.835938 221.757812 286.777344 222.070312 289.15625 C 222.324219 290.898438 222.371094 291.0625 222.886719 291.480469 C 223.195312 291.710938 223.839844 291.9375 224.300781 291.992188 C 225.085938 292.066406 225.183594 292.019531 225.601562 291.5 C 225.851562 291.1875 226.089844 290.671875 226.164062 290.363281 C 226.214844 290.058594 226.292969 283.234375 226.34375 275.230469 C 226.402344 266.601562 226.550781 259.445312 226.738281 257.671875 C 226.925781 255.828125 226.992188 251.894531 226.941406 247.457031 C 226.886719 243.488281 226.855469 240.183594 226.90625 240.125 C 227.058594 239.859375 228.503906 240.5625 230.804688 242.011719 C 232.722656 243.210938 233.691406 243.640625 236.078125 244.351562 C 242.636719 246.316406 245.785156 246.039062 256.328125 242.507812 L 260.484375 241.101562 L 261.558594 241.835938 C 262.167969 242.253906 262.976562 242.589844 263.425781 242.601562 C 263.855469 242.617188 264.246094 242.734375 264.28125 242.859375 C 264.316406 242.984375 266.070312 247.605469 268.207031 253.132812 C 270.324219 258.660156 273.925781 268.148438 276.21875 274.234375 C 278.488281 280.328125 287.96875 305.414062 297.289062 330.007812 C 306.59375 354.605469 316.628906 381.152344 319.585938 389.023438 C 322.546875 396.898438 325.070312 403.503906 325.195312 403.714844 C 325.589844 404.34375 326.785156 404.957031 327.65625 404.941406 C 328.257812 404.933594 329.371094 404.585938 331.871094 403.566406 C 333.742188 402.808594 343.347656 399.128906 353.226562 395.378906 C 368.597656 389.539062 374.476562 387.214844 377.097656 385.917969 C 377.570312 385.675781 377.722656 385.746094 378.40625 386.523438 C 378.84375 386.984375 379.40625 387.726562 379.65625 388.148438 C 380.40625 389.421875 383.917969 398.820312 384.953125 402.363281 L 385.929688 405.675781 L 377.425781 408.964844 C 342.566406 422.457031 331.03125 427.023438 330.496094 427.527344 C 329.761719 428.199219 329.464844 429.152344 329.710938 429.980469 C 329.828125 430.328125 332.175781 436.445312 334.929688 443.566406 C 337.683594 450.691406 341.582031 460.855469 343.589844 466.148438 C 348.242188 478.414062 361.09375 512.15625 362.90625 516.808594 C 364.359375 520.570312 364.914062 521.449219 365.921875 521.621094 C 366.554688 521.714844 373.390625 519.21875 404.269531 507.621094 C 414.375 503.804688 422.667969 500.730469 422.671875 500.753906 C 422.699219 500.765625 423.890625 503.886719 425.328125 507.679688 C 426.769531 511.46875 428.425781 515.648438 429.011719 516.964844 C 429.621094 518.296875 430.414062 520.386719 430.796875 521.621094 C 431.34375 523.375 431.65625 524.097656 432.191406 524.753906 C 432.859375 525.558594 432.9375 525.601562 434.195312 525.527344 C 435.183594 525.457031 435.953125 525.246094 437.695312 524.570312 C 438.929688 524.097656 443.046875 522.613281 446.863281 521.257812 C 450.683594 519.921875 456.472656 517.847656 459.707031 516.648438 C 462.957031 515.445312 473.953125 511.453125 484.152344 507.816406 C 494.367188 504.148438 509.871094 498.542969 518.652344 495.382812 C 534.046875 489.785156 534.613281 489.5625 534.972656 488.996094 C 535.746094 487.730469 535.746094 487.730469 531.082031 475.917969 C 525.277344 461.324219 495.550781 385.277344 491.925781 375.792969 C 490.347656 371.660156 488.863281 367.949219 488.617188 367.546875 C 488.390625 367.117188 487.839844 366.574219 487.414062 366.332031 C 486.460938 365.789062 487.972656 365.261719 472.601562 371.433594 C 450.566406 380.257812 417.621094 393.296875 410.160156 396.140625 C 406.027344 397.71875 399.953125 400.074219 396.65625 401.355469 C 393.34375 402.664062 390.652344 403.714844 390.640625 403.671875 C 390.632812 403.652344 389.183594 399.820312 387.414062 395.15625 L 384.203125 386.683594 L 382.144531 383.820312 L 380.105469 380.953125 L 379.625 377.796875 L 379.160156 374.632812 L 376.347656 367.371094 C 374.808594 363.382812 373.34375 359.824219 373.082031 359.449219 C 372.824219 359.070312 372.332031 358.667969 372.003906 358.535156 C 371.433594 358.332031 371.144531 358.410156 366.933594 359.875 C 364.480469 360.726562 362.425781 361.398438 362.371094 361.371094 C 362.164062 361.269531 356.148438 345.328125 356.246094 345.1875 C 356.3125 345.105469 358.351562 344.210938 360.789062 343.230469 C 365.589844 341.292969 365.605469 341.265625 365.496094 339.882812 C 365.429688 339.074219 357.039062 316.734375 351.816406 303.460938 C 348.0625 293.902344 331.296875 250.355469 328.992188 244.140625 C 328.257812 242.191406 326.890625 238.671875 325.964844 236.351562 C 325.035156 234.011719 323.675781 230.511719 322.941406 228.5625 C 322.207031 226.617188 321.324219 224.375 321.003906 223.613281 C 320.65625 222.832031 320.019531 221.152344 319.566406 219.820312 C 318.554688 216.941406 318.128906 216.453125 316.140625 215.902344 L 314.714844 215.507812 L 315.128906 215.058594 C 316.796875 213.214844 316.742188 211.464844 314.941406 207.503906 C 314.460938 206.472656 308.519531 191.222656 301.761719 173.628906 C 291.226562 146.324219 289.058594 140.851562 286.976562 136.339844 L 284.523438 131.058594 L 268.484375 105.886719 C 259.636719 92.039062 252.261719 80.539062 252.066406 80.324219 C 251.597656 79.828125 250.351562 79.699219 249.253906 80.019531 C 248.753906 80.15625 244.070312 82.601562 238.804688 85.449219 Z M 250.707031 86.804688 C 255.121094 93.789062 257.03125 96.757812 257.878906 97.890625 C 258.386719 98.601562 263.253906 106.085938 268.691406 114.511719 C 277.792969 128.628906 278.789062 130.234375 281.242188 135.023438 C 284.027344 140.460938 286.394531 146.011719 290.65625 157.175781 C 291.761719 160.070312 296.914062 173.5 302.078125 186.988281 L 311.503906 211.554688 L 310.851562 212.851562 C 310.492188 213.574219 310.152344 214.628906 310.085938 215.207031 C 309.996094 216.105469 310.070312 216.375 310.546875 217.296875 C 311.242188 218.605469 312.6875 219.890625 313.863281 220.261719 C 314.726562 220.539062 314.75 220.554688 315.726562 222.816406 C 316.289062 224.050781 318.351562 229.304688 320.304688 234.476562 C 322.277344 239.644531 325.371094 247.679688 327.207031 252.347656 C 334.132812 270.054688 344.503906 297.179688 344.929688 298.742188 C 345.035156 299.117188 345.046875 299.898438 344.964844 300.5 L 344.789062 301.578125 L 345.875 302.691406 C 346.523438 303.339844 347.191406 304.300781 347.558594 305.070312 C 348.300781 306.726562 359.386719 336.050781 359.746094 337.363281 C 359.945312 338.089844 359.929688 338.519531 359.714844 338.890625 C 359.367188 339.5 359.1875 339.574219 358.128906 339.550781 C 357.613281 339.554688 357.039062 339.738281 356.171875 340.175781 C 355.53125 340.527344 354.4375 341.03125 353.769531 341.300781 C 352.128906 341.929688 351.636719 342.332031 351.386719 343.226562 C 351.035156 344.554688 351.621094 346.453125 355.484375 356.316406 C 359.445312 366.464844 359.464844 366.460938 360.929688 366.664062 C 361.625 366.742188 362.1875 366.589844 365.132812 365.492188 C 367.003906 364.800781 368.878906 364.132812 369.296875 364.019531 L 370.027344 363.820312 L 371.464844 367.609375 C 372.265625 369.71875 373.515625 373.226562 374.269531 375.414062 L 375.632812 379.402344 L 375.058594 380.835938 C 374.742188 381.636719 374.277344 382.390625 374.042969 382.523438 C 373.21875 382.949219 363.519531 386.855469 356.964844 389.410156 C 349.460938 392.335938 328.773438 400.027344 328.617188 399.9375 C 328.515625 399.898438 316.757812 368.855469 302.839844 331.957031 C 298.144531 319.457031 293.246094 306.542969 291.992188 303.261719 C 290.734375 299.980469 286.355469 288.378906 282.261719 277.503906 C 278.1875 266.625 273.257812 253.585938 271.3125 248.523438 C 267.347656 238.105469 267.285156 237.96875 265.203125 237.304688 C 264.582031 237.09375 263.53125 236.597656 262.835938 236.183594 C 261.789062 235.554688 261.519531 235.472656 261.050781 235.710938 C 258.375 236.980469 255.742188 237.992188 251.28125 239.457031 C 246.582031 241.011719 245.867188 241.183594 244.304688 241.277344 C 242.105469 241.429688 240.320312 241.113281 236.824219 239.964844 C 234.171875 239.101562 233.589844 238.769531 226.246094 234.265625 C 221.617188 231.414062 217.394531 228.988281 215.757812 228.25 C 209.820312 225.53125 209.746094 225.507812 207.996094 225.492188 C 206.542969 225.488281 205.910156 225.304688 202.09375 223.796875 C 198.070312 222.1875 180.421875 216.5 177.808594 215.960938 C 177.148438 215.828125 175.324219 215.632812 173.757812 215.546875 C 172.1875 215.460938 168.195312 215.097656 164.875 214.753906 C 161.5625 214.429688 158.550781 214.222656 158.175781 214.324219 C 157.804688 214.429688 156.527344 215 155.320312 215.578125 C 153.324219 216.546875 152.933594 216.675781 150.980469 216.988281 C 148.078125 217.421875 144.578125 217.550781 141.351562 217.382812 C 139.03125 217.257812 138.316406 217.09375 135.707031 216.152344 L 132.726562 215.066406 L 125.855469 216.472656 C 116.222656 218.414062 109.117188 219.351562 106.101562 219.054688 C 105.339844 218.972656 95.574219 217.148438 84.394531 214.992188 C 69 211.996094 61.734375 210.46875 54.460938 208.675781 C 43.976562 206.105469 43.242188 205.882812 41.984375 205.039062 C 40.179688 203.855469 38.503906 201.40625 37.828125 199.015625 C 37.542969 197.976562 33.425781 168.265625 33.238281 165.945312 C 33.128906 164.476562 33.449219 163.851562 34.875 162.679688 L 35.984375 161.75 L 59.675781 153.75 C 81.152344 146.488281 85.023438 145.25 101.210938 140.355469 C 116.292969 135.828125 119.699219 134.851562 123.128906 134.136719 C 129.757812 132.75 135.941406 131.953125 148.253906 130.890625 C 163.425781 129.558594 167.769531 128.976562 173.710938 127.375 C 177.609375 126.332031 178.566406 125.980469 182.589844 124.230469 C 194.070312 119.234375 201.449219 115.671875 204.546875 113.660156 C 205.53125 113.011719 208.824219 110.476562 211.847656 108.015625 C 214.867188 105.558594 218.589844 102.546875 220.105469 101.304688 L 222.875 99.070312 L 235.933594 92.054688 C 243.113281 88.1875 249.089844 84.988281 249.234375 84.949219 C 249.375 84.886719 250.023438 85.695312 250.707031 86.804688 Z M 485.167969 371.132812 C 485.179688 371.171875 487.949219 378.203125 491.339844 386.742188 C 497.605469 402.613281 506.511719 425.285156 511.328125 437.730469 C 512.824219 441.570312 516.328125 450.527344 519.121094 457.640625 C 524.707031 471.753906 530.296875 486.3125 530.242188 486.4375 C 530.214844 486.492188 523.292969 489.011719 514.835938 492.0625 C 506.394531 495.085938 496.1875 498.773438 492.160156 500.253906 C 488.125 501.714844 482.472656 503.710938 479.605469 504.695312 C 476.734375 505.660156 471.230469 507.632812 467.363281 509.050781 C 457.277344 512.769531 435.339844 520.714844 435.261719 520.671875 C 435.234375 520.65625 433.15625 515.339844 430.640625 508.84375 C 427.4375 500.570312 425.925781 496.929688 425.632812 496.675781 C 425.390625 496.449219 424.742188 496.113281 424.175781 495.933594 L 423.136719 495.570312 L 421.734375 496.332031 C 420.953125 496.746094 417.21875 498.238281 413.417969 499.65625 C 409.621094 501.078125 403.324219 503.425781 399.414062 504.921875 C 386.671875 509.746094 367.835938 516.667969 367.703125 516.589844 C 367.625 516.546875 360.316406 497.601562 351.464844 474.488281 C 342.636719 451.371094 335.214844 432.007812 334.964844 431.429688 C 334.5625 430.441406 334.566406 430.375 334.996094 430.144531 C 335.484375 429.878906 356.613281 421.683594 377.171875 413.777344 C 383.859375 411.210938 396.550781 406.21875 405.375 402.707031 C 414.199219 399.199219 432.015625 392.15625 444.976562 387.066406 C 463.050781 379.976562 481.78125 372.503906 485.003906 371.109375 C 485.082031 371.066406 485.15625 371.089844 485.167969 371.132812 Z M 485.167969 371.132812 " fill-opacity="1" fill-rule="nonzero"/></g></g></g></g><g transform="matrix(1, 0, 0, 1, 344, 37)"><g clip-path="url(#158629c1ee)"><g fill="#d4a93c" fill-opacity="1"><g transform="translate(0.907623, 73.334364)"><g><path d="M 3.21875 -52.34375 C 3.21875 -53.394531 3.46875 -54.097656 3.96875 -54.453125 C 4.46875 -54.816406 5.4375 -55 6.875 -55 C 10.3125 -55 12.054688 -54.140625 12.109375 -52.421875 L 13.171875 -30.9375 L 13.25 -8.671875 L 27.140625 -8.671875 C 29.484375 -8.671875 30.65625 -7.8125 30.65625 -6.09375 C 30.65625 -2.988281 30.195312 -1.125 29.28125 -0.5 C 28.8125 -0.164062 28.191406 0 27.421875 0 L 4.375 0 L 3.21875 -1.140625 Z M 3.21875 -52.34375 "/></g></g></g><g fill="#d4a93c" fill-opacity="1"><g transform="translate(32.056102, 73.334364)"><g><path d="M 21.34375 -55.0625 C 24.632812 -55.0625 26.421875 -54.320312 26.703125 -52.84375 L 31.578125 -30.859375 L 36.515625 -1.578125 C 36.609375 -1.097656 36.65625 -0.65625 36.65625 -0.25 C 36.65625 0.15625 36.535156 0.488281 36.296875 0.75 C 36.066406 1.007812 35.257812 1.140625 33.875 1.140625 C 29.625 1.140625 27.351562 0.234375 27.0625 -1.578125 L 24.5625 -16.328125 L 14.53125 -16.328125 L 12.3125 -1.5 C 12.175781 -0.5 12 0.164062 11.78125 0.5 C 11.5625 0.832031 11.257812 1.019531 10.875 1.0625 C 10.5 1.113281 9.878906 1.140625 9.015625 1.140625 L 7.015625 1.140625 C 5.347656 1.140625 4.296875 1.046875 3.859375 0.859375 C 2.816406 0.472656 2.222656 0.046875 2.078125 -0.421875 C 2.023438 -0.660156 2 -0.875 2 -1.0625 C 2 -1.257812 2.5 -4.410156 3.5 -10.515625 C 4.507812 -16.628906 5.738281 -23.910156 7.1875 -32.359375 C 8.644531 -40.816406 9.597656 -46.359375 10.046875 -48.984375 C 10.503906 -51.609375 10.757812 -53.085938 10.8125 -53.421875 C 11 -54.515625 14.507812 -55.0625 21.34375 -55.0625 Z M 19.1875 -45.6875 L 15.890625 -24.984375 L 22.984375 -24.984375 Z M 19.1875 -45.6875 "/></g></g></g></g></g><g transform="matrix(1, 0, 0, 1, 342, 98)"><g clip-path="url(#1dde088111)"><g fill="#000000" fill-opacity="1"><g transform="translate(0.58323, 157.541204)"><g><path d="M 35.75 -117.3125 C 51.320312 -117.3125 62.113281 -114.738281 68.125 -109.59375 C 74.132812 -104.457031 77.140625 -96.363281 77.140625 -85.3125 C 77.140625 -74.257812 74.953125 -65.9375 70.578125 -60.34375 C 76.984375 -55.039062 80.1875 -46.128906 80.1875 -33.609375 C 80.1875 -9.578125 66.390625 2.4375 38.796875 2.4375 C 35.535156 2.4375 24.894531 1.625 6.875 0 L 6.875 -114.875 C 17.46875 -116.5 27.09375 -117.3125 35.75 -117.3125 Z M 54.140625 -20.015625 C 56.128906 -22.253906 57.125 -26.832031 57.125 -33.75 C 57.125 -40.675781 56.359375 -44.851562 54.828125 -46.28125 C 53.304688 -47.707031 49.363281 -48.421875 43 -48.421875 C 36.632812 -48.421875 32.609375 -48.316406 30.921875 -48.109375 C 29.242188 -47.910156 28.40625 -47.300781 28.40625 -46.28125 L 28.40625 -18.9375 C 28.40625 -17.820312 29.09375 -17.160156 30.46875 -16.953125 C 31.84375 -16.753906 35.632812 -16.65625 41.84375 -16.65625 C 48.0625 -16.65625 52.160156 -17.773438 54.140625 -20.015625 Z M 31.15625 -67.359375 C 40.019531 -67.359375 46.054688 -68.425781 49.265625 -70.5625 C 52.472656 -72.707031 54.078125 -77.445312 54.078125 -84.78125 C 54.078125 -88.945312 53.1875 -92.378906 51.40625 -95.078125 C 49.625 -97.785156 47.710938 -99.140625 45.671875 -99.140625 C 37.015625 -99.140625 31.769531 -98.578125 29.9375 -97.453125 C 29.320312 -97.046875 28.8125 -96.4375 28.40625 -95.625 L 28.40625 -69.8125 C 28.40625 -68.582031 28.609375 -67.867188 29.015625 -67.671875 C 29.734375 -67.460938 30.445312 -67.359375 31.15625 -67.359375 Z M 31.15625 -67.359375 "/></g></g></g><g fill="#000000" fill-opacity="1"><g transform="translate(80.321422, 157.541204)"><g><path d="M 45.515625 -117.46875 C 52.546875 -117.46875 56.363281 -115.890625 56.96875 -112.734375 L 67.359375 -65.828125 L 77.90625 -3.359375 C 78.101562 -2.335938 78.203125 -1.394531 78.203125 -0.53125 C 78.203125 0.332031 77.945312 1.039062 77.4375 1.59375 C 76.9375 2.15625 75.207031 2.4375 72.25 2.4375 C 63.1875 2.4375 58.347656 0.503906 57.734375 -3.359375 L 52.390625 -34.828125 L 31.015625 -34.828125 L 26.265625 -3.203125 C 25.960938 -1.066406 25.582031 0.351562 25.125 1.0625 C 24.664062 1.78125 24.03125 2.1875 23.21875 2.28125 C 22.40625 2.382812 21.082031 2.4375 19.25 2.4375 L 14.96875 2.4375 C 11.40625 2.4375 9.164062 2.234375 8.25 1.828125 C 6.007812 1.015625 4.738281 0.0976562 4.4375 -0.921875 C 4.332031 -1.429688 4.28125 -1.890625 4.28125 -2.296875 C 4.28125 -2.703125 5.347656 -9.421875 7.484375 -22.453125 C 9.617188 -35.484375 12.238281 -51.007812 15.34375 -69.03125 C 18.457031 -87.0625 20.492188 -98.875 21.453125 -104.46875 C 22.421875 -110.070312 22.957031 -113.234375 23.0625 -113.953125 C 23.46875 -116.296875 30.953125 -117.46875 45.515625 -117.46875 Z M 40.9375 -97.453125 L 33.90625 -53.3125 L 49.03125 -53.3125 Z M 40.9375 -97.453125 "/></g></g></g><g fill="#000000" fill-opacity="1"><g transform="translate(155.324188, 157.541204)"><g><path d="M 66.59375 -18.03125 C 69.144531 -18.03125 70.421875 -16.398438 70.421875 -13.140625 C 70.421875 -9.878906 70.367188 -7.429688 70.265625 -5.796875 C 69.859375 -2.140625 68.226562 -0.0546875 65.375 0.453125 C 56.3125 1.773438 49.59375 2.4375 45.21875 2.4375 C 30.039062 2.4375 19.597656 -1.835938 13.890625 -10.390625 C 8.191406 -18.941406 5.34375 -34.367188 5.34375 -56.671875 C 5.34375 -72.960938 6.585938 -85.410156 9.078125 -94.015625 C 11.578125 -102.617188 15.601562 -108.648438 21.15625 -112.109375 C 26.707031 -115.578125 35.003906 -117.3125 46.046875 -117.3125 C 57.097656 -117.3125 65.171875 -115.582031 70.265625 -112.125 C 71.285156 -111.40625 71.796875 -110.535156 71.796875 -109.515625 C 71.796875 -108.503906 71.3125 -106.597656 70.34375 -103.796875 C 69.375 -100.992188 68.457031 -99.003906 67.59375 -97.828125 C 66.726562 -96.660156 65.835938 -96.078125 64.921875 -96.078125 C 64.003906 -96.078125 63.289062 -96.128906 62.78125 -96.234375 C 55.144531 -97.765625 48.550781 -98.53125 43 -98.53125 C 37.445312 -98.53125 33.832031 -95.472656 32.15625 -89.359375 C 30.476562 -83.242188 29.640625 -73.335938 29.640625 -59.640625 C 29.640625 -45.953125 29.992188 -36.40625 30.703125 -31 C 31.410156 -25.601562 32.734375 -21.835938 34.671875 -19.703125 C 36.609375 -17.566406 39.6875 -16.5 43.90625 -16.5 C 48.132812 -16.5 52.921875 -16.753906 58.265625 -17.265625 C 63.617188 -17.773438 66.394531 -18.03125 66.59375 -18.03125 Z M 66.59375 -18.03125 "/></g></g></g><g fill="#000000" fill-opacity="1"><g transform="translate(231.396299, 157.541204)"><g><path d="M 55.296875 -111.8125 C 56.828125 -115.476562 61.003906 -117.3125 67.828125 -117.3125 C 74.648438 -117.3125 78.0625 -116.039062 78.0625 -113.5 C 78.0625 -112.988281 77.90625 -112.425781 77.59375 -111.8125 L 54.53125 -63.703125 L 83.703125 -3.203125 C 84.421875 -1.679688 84.78125 -0.59375 84.78125 0.0625 C 84.78125 0.726562 84.597656 1.289062 84.234375 1.75 C 83.878906 2.207031 81.894531 2.4375 78.28125 2.4375 C 74.664062 2.4375 70.796875 2.003906 66.671875 1.140625 C 62.546875 0.273438 60.023438 -1.171875 59.109375 -3.203125 L 32.390625 -58.96875 L 32.390625 -63.546875 Z M 6.875 -3.0625 L 6.875 -111.65625 C 6.875 -113.894531 7.429688 -115.394531 8.546875 -116.15625 C 9.671875 -116.925781 11.757812 -117.3125 14.8125 -117.3125 C 22.144531 -117.3125 25.863281 -115.375 25.96875 -111.5 L 28.265625 -65.984375 L 28.40625 -3.359375 C 28.40625 -1.523438 28.304688 -0.300781 28.109375 0.3125 C 27.796875 1.726562 25.859375 2.4375 22.296875 2.4375 C 12.015625 2.4375 6.875 0.601562 6.875 -3.0625 Z M 6.875 -3.0625 "/></g></g></g><g fill="#000000" fill-opacity="1"><g transform="translate(320.452617, 157.541204)"><g><path d="M 3.203125 -113.796875 C 3.203125 -116.140625 6.5625 -117.3125 13.28125 -117.3125 C 20.007812 -117.3125 24.132812 -115.425781 25.65625 -111.65625 L 46.59375 -75.15625 L 64.765625 -112.125 C 65.578125 -114.15625 66.695312 -115.523438 68.125 -116.234375 C 69.550781 -116.953125 71.789062 -117.3125 74.84375 -117.3125 C 81.769531 -117.3125 85.234375 -116.039062 85.234375 -113.5 C 85.234375 -112.882812 85.082031 -112.269531 84.78125 -111.65625 L 54.984375 -53.3125 L 54.984375 -3.203125 C 54.984375 -1.472656 54.882812 -0.300781 54.6875 0.3125 C 54.375 1.726562 52.4375 2.4375 48.875 2.4375 C 41.039062 2.4375 37.125 0.503906 37.125 -3.359375 L 37.125 -53.3125 L 3.8125 -111.8125 C 3.40625 -112.519531 3.203125 -113.179688 3.203125 -113.796875 Z M 3.203125 -113.796875 "/></g></g></g><g fill="#000000" fill-opacity="1"><g transform="translate(396.066375, 157.541204)"><g><path d="M 45.515625 -117.46875 C 52.546875 -117.46875 56.363281 -115.890625 56.96875 -112.734375 L 67.359375 -65.828125 L 77.90625 -3.359375 C 78.101562 -2.335938 78.203125 -1.394531 78.203125 -0.53125 C 78.203125 0.332031 77.945312 1.039062 77.4375 1.59375 C 76.9375 2.15625 75.207031 2.4375 72.25 2.4375 C 63.1875 2.4375 58.347656 0.503906 57.734375 -3.359375 L 52.390625 -34.828125 L 31.015625 -34.828125 L 26.265625 -3.203125 C 25.960938 -1.066406 25.582031 0.351562 25.125 1.0625 C 24.664062 1.78125 24.03125 2.1875 23.21875 2.28125 C 22.40625 2.382812 21.082031 2.4375 19.25 2.4375 L 14.96875 2.4375 C 11.40625 2.4375 9.164062 2.234375 8.25 1.828125 C 6.007812 1.015625 4.738281 0.0976562 4.4375 -0.921875 C 4.332031 -1.429688 4.28125 -1.890625 4.28125 -2.296875 C 4.28125 -2.703125 5.347656 -9.421875 7.484375 -22.453125 C 9.617188 -35.484375 12.238281 -51.007812 15.34375 -69.03125 C 18.457031 -87.0625 20.492188 -98.875 21.453125 -104.46875 C 22.421875 -110.070312 22.957031 -113.234375 23.0625 -113.953125 C 23.46875 -116.296875 30.953125 -117.46875 45.515625 -117.46875 Z M 40.9375 -97.453125 L 33.90625 -53.3125 L 49.03125 -53.3125 Z M 40.9375 -97.453125 "/></g></g></g><g fill="#000000" fill-opacity="1"><g transform="translate(478.401435, 157.541204)"><g><path d="M 6.875 -3.671875 L 6.875 -114.875 C 17.257812 -116.5 26.269531 -117.3125 33.90625 -117.3125 C 48.0625 -117.3125 57.835938 -114.660156 63.234375 -109.359375 C 68.628906 -104.066406 71.328125 -95.3125 71.328125 -83.09375 C 71.328125 -65.988281 66.539062 -54.582031 56.96875 -48.875 L 76.21875 -5.34375 C 77.34375 -2.800781 77.90625 -1.144531 77.90625 -0.375 C 77.90625 0.382812 77.800781 0.863281 77.59375 1.0625 C 77.1875 1.976562 75.457031 2.4375 72.40625 2.4375 C 62.53125 2.4375 56.722656 0.503906 54.984375 -3.359375 L 37.578125 -43.6875 C 35.023438 -43.476562 31.207031 -43.375 26.125 -43.375 L 26.125 -3.96875 C 26.125 -1.113281 25.84375 0.664062 25.28125 1.375 C 24.71875 2.082031 22.960938 2.4375 20.015625 2.4375 C 11.253906 2.4375 6.875 0.398438 6.875 -3.671875 Z M 28.5625 -64.3125 C 36.707031 -64.3125 42.207031 -65.457031 45.0625 -67.75 C 47.914062 -70.039062 49.34375 -75.207031 49.34375 -83.25 C 49.34375 -88.132812 48.550781 -92.003906 46.96875 -94.859375 C 45.394531 -97.710938 43.640625 -99.140625 41.703125 -99.140625 C 34.472656 -99.140625 30.066406 -98.984375 28.484375 -98.671875 C 26.910156 -98.367188 26.125 -97.351562 26.125 -95.625 L 26.125 -66.59375 C 26.125 -65.269531 26.375 -64.554688 26.875 -64.453125 C 27.382812 -64.359375 27.945312 -64.3125 28.5625 -64.3125 Z M 28.5625 -64.3125 "/></g></g></g><g fill="#000000" fill-opacity="1"><g transform="translate(559.667259, 157.541204)"><g><path d="M 40.328125 -117.3125 C 51.421875 -117.3125 59.816406 -115.734375 65.515625 -112.578125 C 71.222656 -109.421875 75.347656 -103.691406 77.890625 -95.390625 C 80.441406 -87.085938 81.71875 -74.789062 81.71875 -58.5 C 81.71875 -35.894531 78.765625 -20.085938 72.859375 -11.078125 C 66.953125 -2.066406 56.109375 2.4375 40.328125 2.4375 C 36.453125 2.4375 25.300781 1.625 6.875 0 L 6.875 -114.71875 C 22.351562 -116.445312 33.503906 -117.3125 40.328125 -117.3125 Z M 48.421875 -99.140625 C 39.554688 -99.140625 34.003906 -98.957031 31.765625 -98.59375 C 29.523438 -98.238281 28.40625 -97.25 28.40625 -95.625 L 28.40625 -18.9375 C 28.40625 -17.820312 29.09375 -17.160156 30.46875 -16.953125 C 31.84375 -16.753906 34.644531 -16.65625 38.875 -16.65625 C 43.101562 -16.65625 46.082031 -16.882812 47.8125 -17.34375 C 49.539062 -17.800781 51.144531 -18.613281 52.625 -19.78125 C 54.101562 -20.945312 55.09375 -23.210938 55.59375 -26.578125 C 56.613281 -33.097656 57.125 -43.179688 57.125 -56.828125 C 57.125 -85.035156 54.222656 -99.140625 48.421875 -99.140625 Z M 48.421875 -99.140625 "/></g></g></g></g></g><g transform="matrix(1, 0, 0, 1, 407, 267)"><g clip-path="url(#279deb3ff1)"><g fill="#d4a93c" fill-opacity="1"><g transform="translate(0.159758, 73.798063)"><g><path d="M 18.90625 -55 C 24.101562 -55 28.039062 -54.257812 30.71875 -52.78125 C 33.394531 -51.300781 35.328125 -48.613281 36.515625 -44.71875 C 37.710938 -40.832031 38.3125 -35.066406 38.3125 -27.421875 C 38.3125 -16.828125 36.925781 -9.414062 34.15625 -5.1875 C 31.382812 -0.96875 26.300781 1.140625 18.90625 1.140625 C 17.09375 1.140625 11.863281 0.757812 3.21875 0 L 3.21875 -53.78125 C 10.476562 -54.59375 15.707031 -55 18.90625 -55 Z M 22.703125 -46.46875 C 18.546875 -46.46875 15.941406 -46.382812 14.890625 -46.21875 C 13.835938 -46.050781 13.3125 -45.585938 13.3125 -44.828125 L 13.3125 -8.875 C 13.3125 -8.351562 13.632812 -8.046875 14.28125 -7.953125 C 14.925781 -7.859375 16.238281 -7.8125 18.21875 -7.8125 C 20.207031 -7.8125 21.601562 -7.914062 22.40625 -8.125 C 23.21875 -8.34375 23.96875 -8.722656 24.65625 -9.265625 C 25.351562 -9.816406 25.820312 -10.878906 26.0625 -12.453125 C 26.539062 -15.515625 26.78125 -20.242188 26.78125 -26.640625 C 26.78125 -39.859375 25.421875 -46.46875 22.703125 -46.46875 Z M 22.703125 -46.46875 "/></g></g></g><g fill="#d4a93c" fill-opacity="1"><g transform="translate(41.046616, 73.798063)"><g><path d="M 27.0625 -32.578125 C 28.976562 -32.578125 29.9375 -31.71875 29.9375 -30 C 29.9375 -27.664062 29.789062 -26.066406 29.5 -25.203125 C 29.21875 -24.347656 28.476562 -23.921875 27.28125 -23.921875 L 13.25 -23.921875 L 13.25 -8.671875 L 29.796875 -8.671875 C 30.941406 -8.617188 31.726562 -8.390625 32.15625 -7.984375 C 32.582031 -7.578125 32.796875 -6.96875 32.796875 -6.15625 C 32.796875 -3.820312 32.582031 -2.210938 32.15625 -1.328125 C 31.726562 -0.441406 30.867188 0 29.578125 0 L 4.375 0 L 3.21875 -1.140625 L 3.21875 -53.84375 L 28.640625 -53.84375 C 30.691406 -53.800781 31.71875 -53.039062 31.71875 -51.5625 C 31.675781 -50.269531 31.601562 -49.253906 31.5 -48.515625 C 31.40625 -47.773438 31.109375 -47.046875 30.609375 -46.328125 C 30.109375 -45.609375 29.378906 -45.25 28.421875 -45.25 L 12.453125 -45.25 L 13.25 -32.578125 Z M 27.0625 -32.578125 "/></g></g></g><g fill="#d4a93c" fill-opacity="1"><g transform="translate(75.632175, 73.798063)"><g><path d="M 3.4375 -5.234375 C 2.4375 -6.472656 1.9375 -7.410156 1.9375 -8.046875 C 1.9375 -8.691406 2.492188 -9.578125 3.609375 -10.703125 C 4.734375 -11.828125 5.472656 -12.4375 5.828125 -12.53125 C 6.191406 -12.625 6.539062 -12.671875 6.875 -12.671875 C 7.207031 -12.671875 7.753906 -12.457031 8.515625 -12.03125 C 12.054688 -9.257812 15.160156 -7.875 17.828125 -7.875 C 20.503906 -7.875 22.25 -8.492188 23.0625 -9.734375 C 23.875 -10.972656 24.28125 -12.59375 24.28125 -14.59375 C 24.28125 -16.601562 23.5625 -18.226562 22.125 -19.46875 C 20.695312 -20.71875 18.347656 -22.222656 15.078125 -23.984375 C 11.804688 -25.753906 8.953125 -28.046875 6.515625 -30.859375 C 4.078125 -33.679688 2.859375 -36.59375 2.859375 -39.59375 C 2.859375 -44.945312 4.253906 -48.851562 7.046875 -51.3125 C 9.847656 -53.769531 13.941406 -55 19.328125 -55 C 22.628906 -55 25.851562 -54.207031 29 -52.625 C 30.675781 -51.957031 31.460938 -51.269531 31.359375 -50.5625 C 31.316406 -50.269531 31.269531 -49.835938 31.21875 -49.265625 C 30.3125 -46.691406 29.617188 -45.210938 29.140625 -44.828125 C 29.003906 -44.734375 28.679688 -44.6875 28.171875 -44.6875 C 27.671875 -44.6875 26.347656 -45.078125 24.203125 -45.859375 C 22.054688 -46.648438 20.226562 -47.046875 18.71875 -47.046875 C 17.21875 -47.046875 15.96875 -46.519531 14.96875 -45.46875 C 13.96875 -44.414062 13.46875 -42.9375 13.46875 -41.03125 C 13.46875 -39.125 14.328125 -37.394531 16.046875 -35.84375 C 17.765625 -34.289062 20.410156 -32.675781 23.984375 -31 C 27.753906 -29.050781 30.582031 -27.023438 32.46875 -24.921875 C 34.351562 -22.816406 35.296875 -20 35.296875 -16.46875 C 35.296875 -4.726562 30.332031 1.140625 20.40625 1.140625 C 13.007812 1.140625 7.351562 -0.984375 3.4375 -5.234375 Z M 3.4375 -5.234375 "/></g></g></g></g></g><g transform="matrix(1, 0, 0, 1, 543, 262)"><g clip-path="url(#de669dbb94)"><g fill="#000000" fill-opacity="1"><g transform="translate(0.995949, 175.678265)"><g><path d="M 70.0625 -3.578125 L 70.0625 -80.78125 L 59.015625 -60.203125 L 41.828125 -60.203125 L 31.46875 -80.4375 L 31.46875 -3.734375 C 31.46875 -1.703125 31.410156 -0.34375 31.296875 0.34375 C 30.835938 1.925781 28.625 2.71875 24.65625 2.71875 C 13.320312 2.71875 7.65625 0.617188 7.65625 -3.578125 L 7.65625 -124.140625 C 7.65625 -128.453125 11.566406 -130.609375 19.390625 -130.609375 C 27.210938 -130.609375 31.914062 -128.507812 33.5 -124.3125 L 50.671875 -80.4375 L 68.703125 -124.484375 C 69.609375 -126.984375 70.710938 -128.628906 72.015625 -129.421875 C 73.328125 -130.210938 75.625 -130.609375 78.90625 -130.609375 C 87.070312 -130.609375 91.210938 -128.394531 91.328125 -123.96875 L 94.046875 -73.296875 L 94.046875 -4.765625 C 94.046875 -1.359375 93.734375 0.738281 93.109375 1.53125 C 92.484375 2.320312 90.441406 2.71875 86.984375 2.71875 C 83.523438 2.71875 80.71875 2.601562 78.5625 2.375 C 76.414062 2.15625 74.460938 1.5625 72.703125 0.59375 C 70.941406 -0.363281 70.0625 -1.753906 70.0625 -3.578125 Z M 70.0625 -3.578125 "/></g></g></g><g fill="#000000" fill-opacity="1"><g transform="translate(99.632827, 175.678265)"><g><path d="M 6.296875 -63.09375 C 6.296875 -81.125 7.710938 -94.957031 10.546875 -104.59375 C 13.378906 -114.226562 17.882812 -120.972656 24.0625 -124.828125 C 30.238281 -128.679688 39.164062 -130.609375 50.84375 -130.609375 C 62.519531 -130.609375 71.445312 -128.679688 77.625 -124.828125 C 83.8125 -120.972656 88.289062 -114.253906 91.0625 -104.671875 C 93.84375 -95.085938 95.234375 -81.226562 95.234375 -63.09375 C 95.234375 -38.257812 92.054688 -21.082031 85.703125 -11.5625 C 79.359375 -2.039062 67.738281 2.71875 50.84375 2.71875 C 33.957031 2.71875 22.3125 -2.039062 15.90625 -11.5625 C 9.5 -21.082031 6.296875 -38.257812 6.296875 -63.09375 Z M 34.6875 -94.8125 C 34.007812 -90.5625 33.613281 -86.253906 33.5 -81.890625 C 33.382812 -77.523438 33.328125 -70.125 33.328125 -59.6875 C 33.328125 -49.257812 33.664062 -40.53125 34.34375 -33.5 C 35.03125 -26.46875 35.941406 -21.847656 37.078125 -19.640625 C 38.210938 -17.429688 39.742188 -16.328125 41.671875 -16.328125 C 51.640625 -16.328125 58.15625 -17.347656 61.21875 -19.390625 C 62.351562 -20.179688 63.457031 -21.484375 64.53125 -23.296875 C 65.613281 -25.109375 66.378906 -26.976562 66.828125 -28.90625 C 67.285156 -30.832031 67.6875 -33.664062 68.03125 -37.40625 C 68.476562 -42.28125 68.703125 -51.039062 68.703125 -63.6875 C 68.703125 -76.332031 68.390625 -86.3125 67.765625 -93.625 C 67.140625 -100.9375 66.234375 -105.921875 65.046875 -108.578125 C 63.859375 -111.242188 62.300781 -112.578125 60.375 -112.578125 C 55.832031 -112.578125 52.171875 -112.378906 49.390625 -111.984375 C 46.617188 -111.585938 44.15625 -110.625 42 -109.09375 C 39.851562 -107.5625 38.269531 -105.859375 37.25 -103.984375 C 36.226562 -102.117188 35.375 -99.0625 34.6875 -94.8125 Z M 34.6875 -94.8125 "/></g></g></g><g fill="#000000" fill-opacity="1"><g transform="translate(198.269706, 175.678265)"><g><path d="M 6.296875 -63.09375 C 6.296875 -81.125 7.710938 -94.957031 10.546875 -104.59375 C 13.378906 -114.226562 17.882812 -120.972656 24.0625 -124.828125 C 30.238281 -128.679688 39.164062 -130.609375 50.84375 -130.609375 C 62.519531 -130.609375 71.445312 -128.679688 77.625 -124.828125 C 83.8125 -120.972656 88.289062 -114.253906 91.0625 -104.671875 C 93.84375 -95.085938 95.234375 -81.226562 95.234375 -63.09375 C 95.234375 -38.257812 92.054688 -21.082031 85.703125 -11.5625 C 79.359375 -2.039062 67.738281 2.71875 50.84375 2.71875 C 33.957031 2.71875 22.3125 -2.039062 15.90625 -11.5625 C 9.5 -21.082031 6.296875 -38.257812 6.296875 -63.09375 Z M 34.6875 -94.8125 C 34.007812 -90.5625 33.613281 -86.253906 33.5 -81.890625 C 33.382812 -77.523438 33.328125 -70.125 33.328125 -59.6875 C 33.328125 -49.257812 33.664062 -40.53125 34.34375 -33.5 C 35.03125 -26.46875 35.941406 -21.847656 37.078125 -19.640625 C 38.210938 -17.429688 39.742188 -16.328125 41.671875 -16.328125 C 51.640625 -16.328125 58.15625 -17.347656 61.21875 -19.390625 C 62.351562 -20.179688 63.457031 -21.484375 64.53125 -23.296875 C 65.613281 -25.109375 66.378906 -26.976562 66.828125 -28.90625 C 67.285156 -30.832031 67.6875 -33.664062 68.03125 -37.40625 C 68.476562 -42.28125 68.703125 -51.039062 68.703125 -63.6875 C 68.703125 -76.332031 68.390625 -86.3125 67.765625 -93.625 C 67.140625 -100.9375 66.234375 -105.921875 65.046875 -108.578125 C 63.859375 -111.242188 62.300781 -112.578125 60.375 -112.578125 C 55.832031 -112.578125 52.171875 -112.378906 49.390625 -111.984375 C 46.617188 -111.585938 44.15625 -110.625 42 -109.09375 C 39.851562 -107.5625 38.269531 -105.859375 37.25 -103.984375 C 36.226562 -102.117188 35.375 -99.0625 34.6875 -94.8125 Z M 34.6875 -94.8125 "/></g></g></g><g fill="#000000" fill-opacity="1"><g transform="translate(296.906595, 175.678265)"><g><path d="M 7.65625 -124.3125 C 7.65625 -126.8125 8.25 -128.484375 9.4375 -129.328125 C 10.625 -130.179688 12.921875 -130.609375 16.328125 -130.609375 C 24.492188 -130.609375 28.628906 -128.566406 28.734375 -124.484375 L 31.296875 -73.46875 L 31.46875 -20.578125 L 64.453125 -20.578125 C 70.003906 -20.578125 72.78125 -18.535156 72.78125 -14.453125 C 72.78125 -7.085938 71.707031 -2.664062 69.5625 -1.1875 C 68.425781 -0.394531 66.953125 0 65.140625 0 L 10.375 0 L 7.65625 -2.71875 Z M 7.65625 -124.3125 "/></g></g></g><g fill="#000000" fill-opacity="1"><g transform="translate(367.993158, 175.678265)"><g><path d="M 8.15625 -12.421875 C 5.78125 -15.367188 4.59375 -17.601562 4.59375 -19.125 C 4.59375 -20.65625 5.921875 -22.753906 8.578125 -25.421875 C 11.242188 -28.085938 13.003906 -29.53125 13.859375 -29.75 C 14.710938 -29.976562 15.535156 -30.09375 16.328125 -30.09375 C 17.117188 -30.09375 18.421875 -29.585938 20.234375 -28.578125 C 28.628906 -21.992188 36 -18.703125 42.34375 -18.703125 C 48.695312 -18.703125 52.835938 -20.175781 54.765625 -23.125 C 56.691406 -26.070312 57.65625 -29.925781 57.65625 -34.6875 C 57.65625 -39.445312 55.953125 -43.300781 52.546875 -46.25 C 49.148438 -49.195312 43.566406 -52.769531 35.796875 -56.96875 C 28.035156 -61.164062 21.257812 -66.609375 15.46875 -73.296875 C 9.6875 -79.984375 6.796875 -86.898438 6.796875 -94.046875 C 6.796875 -106.742188 10.113281 -116.007812 16.75 -121.84375 C 23.382812 -127.6875 33.109375 -130.609375 45.921875 -130.609375 C 53.742188 -130.609375 61.394531 -128.738281 68.875 -125 C 72.84375 -123.40625 74.710938 -121.757812 74.484375 -120.0625 C 74.367188 -119.382812 74.253906 -118.363281 74.140625 -117 C 71.992188 -110.875 70.351562 -107.359375 69.21875 -106.453125 C 68.875 -106.234375 68.109375 -106.125 66.921875 -106.125 C 65.734375 -106.125 62.585938 -107.054688 57.484375 -108.921875 C 52.378906 -110.796875 48.039062 -111.734375 44.46875 -111.734375 C 40.894531 -111.734375 37.914062 -110.484375 35.53125 -107.984375 C 33.15625 -105.492188 31.96875 -101.976562 31.96875 -97.4375 C 31.96875 -92.90625 34.007812 -88.796875 38.09375 -85.109375 C 42.175781 -81.429688 48.46875 -77.609375 56.96875 -73.640625 C 65.925781 -68.992188 72.644531 -64.175781 77.125 -59.1875 C 81.601562 -54.195312 83.84375 -47.503906 83.84375 -39.109375 C 83.84375 -11.222656 72.050781 2.71875 48.46875 2.71875 C 30.894531 2.71875 17.457031 -2.328125 8.15625 -12.421875 Z M 8.15625 -12.421875 "/></g></g></g></g></g></svg>